<svg id="Layer_1" data-name="Layer 1" xmlns="http://www.w3.org/2000/svg" viewBox="0 0 64 64"><defs><style>.cls-1{fill:#eae2b7;}</style></defs><path class="cls-1" d="M63.61,30.38A35.62,35.62,0,0,0,32,10.67,35.64,35.64,0,0,0,.39,30.38a3.56,3.56,0,0,0,0,3.24A35.62,35.62,0,0,0,32,53.33,35.64,35.64,0,0,0,63.61,33.62,3.56,3.56,0,0,0,63.61,30.38ZM32,48A16,16,0,1,1,48,32,16,16,0,0,1,32,48Zm0-26.67a11.11,11.11,0,0,0-2.81.42,5.32,5.32,0,0,1-7.44,7.44A10.65,10.65,0,1,0,34.81,21.7,11.06,11.06,0,0,0,32,21.33Z"/></svg>