<svg id="Layer_1" data-name="Layer 1" xmlns="http://www.w3.org/2000/svg" viewBox="0 0 64 64"><defs><style>.cls-1{fill:#89512b;}.cls-2{fill:#fff;}</style></defs><path class="cls-1" d="M62.12,47.56a7.06,7.06,0,0,0-7.79-1.37L42.64,34.77C44.71,30.2,44.48,25,42,21.3L30,4.63A10.6,10.6,0,0,0,21.56.06c-4.58-.45-9.17,1.6-12.83,5L5.29,9A15.44,15.44,0,0,0,0,21.07a11.58,11.58,0,0,0,4.12,8.45l15.59,13a11.24,11.24,0,0,0,7.56,2.51A15.71,15.71,0,0,0,34.85,43L46.08,54.18a7,7,0,0,0,1.38,7.76,6.65,6.65,0,0,0,9.62,0,7.19,7.19,0,0,0,1.83-3.19,5.09,5.09,0,0,0,3-1.83A6.55,6.55,0,0,0,64,52.13,5.17,5.17,0,0,0,62.12,47.56Z"/><path class="cls-1" d="M36.23,36.83a12,12,0,0,1-1.84,1.6c-4.35,2.51-8.93,2.74-11.68.45L6.89,26.09a6.64,6.64,0,0,1-2.29-5c-.23-3.2,1.38-6.39,3.9-8.9l3.66-3.66a11.77,11.77,0,0,1,8.48-3.88h.69a6.68,6.68,0,0,1,5,2.74L38.52,24c1.83,2.51,1.83,6.39-.23,10.05A23.07,23.07,0,0,1,36.23,36.83Z"/><path class="cls-2" d="M58.91,54a2.29,2.29,0,0,1-1.83.69,2.62,2.62,0,0,0-1.83.68,2.59,2.59,0,0,0-.69,1.83A2.3,2.3,0,0,1,53.87,59a2.09,2.09,0,0,1-1.6.68A2.11,2.11,0,0,1,50.66,59a2.22,2.22,0,0,1,0-3.2,2.2,2.2,0,0,0,0-3.2L38.52,40.48,39,40a5.79,5.79,0,0,0,1.14-1.37L52.27,50.76a2.23,2.23,0,0,0,3.21,0,2.21,2.21,0,0,1,3.21,0,2.07,2.07,0,0,1,.68,1.59A1.5,1.5,0,0,1,58.91,54Z"/></svg>