<svg id="Layer_1" data-name="Layer 1" xmlns="http://www.w3.org/2000/svg" viewBox="0 0 64 64"><defs><style>.cls-1{fill:#d62828;fill-rule:evenodd;}</style></defs><path class="cls-1" d="M21.14,6.82A8.66,8.66,0,0,0,13.38,0l-.49,3.43c2.5.35,4,1.45,4.79,3.86a9.57,9.57,0,0,0-3.89,2.27c-3.09,3.07-2.07,5.9-1,9.43a67.17,67.17,0,0,1,2.3,23.54A134.1,134.1,0,0,1,11.34,64c5.4-6.26,9.45-11.24,12.56-17.83,4-8.4,8.67-27.54,4.4-35.26A8.16,8.16,0,0,0,21.14,6.82Z"/><path class="cls-1" d="M43.81,6.82A8.65,8.65,0,0,0,36.05,0l-.48,3.43c2.49.35,4,1.45,4.78,3.86a9.46,9.46,0,0,0-3.88,2.27c-3.09,3.07-2.08,5.9-1,9.43a67.17,67.17,0,0,1,2.3,23.54A134.1,134.1,0,0,1,34,64c5.4-6.26,9.45-11.24,12.56-17.83,4-8.4,8.68-27.54,4.4-35.26A8.15,8.15,0,0,0,43.81,6.82Z"/></svg>